<svg width="37" height="35" viewBox="0 0 37 35" fill="F7F5F4" xmlns="http://www.w3.org/2000/svg">
<path d="M16.2006 0.0961189C8.78344 0.992149 2.59658 6.3612 0.790304 13.4654C0.370736 15.1295 0.264066 15.9971 0.264066 17.8033C0.256954 18.7207 0.299622 19.6452 0.356513 20.0434C1.12454 25.6116 4.16818 30.2197 8.97544 33.1354C10.4404 34.0172 12.3818 34.835 13.0289 34.835C13.3489 34.835 13.42 34.8065 13.6334 34.5932C13.7898 34.4367 13.8751 34.2803 13.8823 34.1452C13.8965 33.8607 13.8609 30.9593 13.8538 30.9522C13.8467 30.9451 13.5551 30.9877 13.1996 31.0446C12.4315 31.1655 11.2582 31.13 10.6395 30.9593C9.82169 30.7459 9.203 30.3975 8.65543 29.8357C8.20031 29.3877 8.07941 29.1957 7.6314 28.2925C7.04116 27.0907 6.65004 26.5574 5.9958 26.1022C4.98599 25.3911 4.82243 25.0782 5.37711 24.8862C5.59756 24.8151 5.76112 24.808 6.10958 24.8649C7.07672 25.0213 7.95141 25.64 8.6341 26.6498C9.48746 27.9156 10.1915 28.4063 11.4004 28.577C11.9551 28.6552 12.716 28.5699 13.4271 28.3565C13.932 28.2001 13.932 28.2001 14.124 27.425C14.252 26.9272 14.6005 26.2658 14.9134 25.9387L15.0912 25.7538L14.6432 25.704C13.9107 25.6187 12.5596 25.3129 11.8982 25.0782C10.7035 24.6586 9.93547 24.2035 9.08922 23.3928C7.51051 21.8852 6.77093 19.6949 6.85627 16.7722C6.88471 15.7695 6.92027 15.5064 7.07672 14.9588C7.33273 14.0983 7.70251 13.373 8.24298 12.6618C8.58432 12.2067 8.66965 12.0503 8.61988 11.9507C8.47054 11.6663 8.32831 10.756 8.32831 10.0946C8.32831 9.33374 8.45632 8.53727 8.68388 7.84036C8.86166 7.32123 8.95411 7.28567 9.71502 7.39234C10.6822 7.52746 12.0618 8.09636 13.3134 8.87861C13.8183 9.19862 13.8823 9.21996 14.1027 9.15595C14.7001 8.98528 16.3001 8.73639 17.3028 8.66527C18.9242 8.54438 21.1287 8.73639 22.5439 9.1204L22.9279 9.22707L23.575 8.82883C24.8195 8.06081 26.1209 7.52746 27.0951 7.38523C27.8631 7.27856 27.9271 7.31412 28.1262 7.94703C28.2187 8.2457 28.3325 8.73639 28.3823 9.04217C28.5031 9.77464 28.4391 11.1258 28.2614 11.6876L28.1262 12.1143L28.4534 12.5125C29.5201 13.8423 29.961 15.1864 29.9539 17.0993C29.9467 21.871 27.792 24.5946 23.3403 25.4836C22.8852 25.5689 22.3305 25.6685 22.103 25.6969L21.6905 25.7467L21.9394 26.0169C22.2452 26.3583 22.5652 26.9769 22.7359 27.553C22.8425 27.9156 22.8639 28.4205 22.8994 31.1371C22.935 33.5123 22.9634 34.3443 23.0345 34.4581C23.1554 34.6785 23.4826 34.835 23.8026 34.835C24.4639 34.835 27.024 33.6758 28.4889 32.7229C29.6623 31.9478 30.6152 31.1655 31.5824 30.1699C34.3202 27.361 35.9558 23.9902 36.4963 20.0434C36.6385 19.0194 36.6172 16.438 36.4607 15.3855C35.2376 7.27856 28.7734 1.05615 20.574 0.0961189C19.4789 -0.0318832 17.2744 -0.0318832 16.2006 0.0961189Z" fill="#2E4042"/>
</svg>
