<svg width="36" height="37" viewBox="0 0 36 37" fill="none" xmlns="http://www.w3.org/2000/svg">
<path d="M25.4441 0H10.4092C7.65104 0.00487791 5.00713 1.11931 3.05623 3.09935C1.10534 5.07938 0.00641018 7.76371 0 10.5647V25.8577C0.0112007 28.656 1.11206 31.3363 3.06226 33.3133C5.01246 35.2903 7.65363 36.4036 10.4092 36.4101H25.4562C28.2102 36.402 30.8492 35.2878 32.7971 33.3108C34.745 31.3337 35.8437 28.6544 35.8533 25.8577V10.5647C35.8469 7.76371 34.7479 5.07938 32.7971 3.09935C30.8462 1.11931 28.2022 0.00487791 25.4441 0V0ZM33.0888 25.8577C33.092 26.8779 32.8967 27.8887 32.5141 28.832C32.1315 29.7753 31.5692 30.6325 30.8594 31.3545C30.1496 32.0765 29.3063 32.6489 28.378 33.0389C27.4497 33.429 26.4547 33.6289 25.4501 33.6273H10.4092C9.40513 33.6281 8.41076 33.4276 7.48318 33.0372C6.5556 32.6468 5.71306 32.0742 5.00391 31.3523C4.29476 30.6304 3.73296 29.7735 3.35074 28.8305C2.96852 27.8876 2.77341 26.8774 2.7766 25.8577V10.5647C2.77421 9.54526 2.96987 8.53535 3.35237 7.5928C3.73487 6.65026 4.29671 5.79359 5.0057 5.07188C5.71469 4.35016 6.55691 3.77756 7.48413 3.38687C8.41135 2.99619 9.40535 2.79509 10.4092 2.79509H25.4441C26.449 2.79347 27.4443 2.99337 28.3729 3.38333C29.3015 3.77329 30.1452 4.34563 30.8554 5.06751C31.5657 5.78939 32.1286 6.6466 32.5119 7.58995C32.8951 8.5333 33.0912 9.54422 33.0888 10.5647V25.8577Z" fill="#2E4042"/>
<path d="M28.9604 5.60255C28.6882 5.60255 28.4222 5.68452 28.1958 5.83808C27.9695 5.99165 27.7931 6.20991 27.689 6.46528C27.5848 6.72065 27.5576 7.00165 27.6107 7.27275C27.6638 7.54384 27.7948 7.79286 27.9873 7.98831C28.1798 8.18376 28.425 8.31687 28.6919 8.37079C28.9589 8.42472 29.2356 8.39704 29.487 8.29126C29.7385 8.18549 29.9534 8.00636 30.1046 7.77653C30.2559 7.54671 30.3366 7.27651 30.3366 7.0001C30.3374 6.81634 30.3023 6.63424 30.2335 6.46432C30.1646 6.29439 30.0632 6.14 29.9353 6.01007C29.8073 5.88013 29.6553 5.77722 29.488 5.70727C29.3207 5.63733 29.1413 5.60174 28.9604 5.60255Z" fill="#2E4042"/>
<path d="M17.9327 8.39771C16.0221 8.39528 14.1537 8.9684 12.564 10.0446C10.9742 11.1208 9.73449 12.6516 9.00168 14.4435C8.26887 16.2353 8.07589 18.2077 8.44716 20.1109C8.81842 22.0142 9.73725 23.7629 11.0874 25.1357C12.4375 26.5085 14.1583 27.4438 16.032 27.8233C17.9057 28.2027 19.8481 28.0092 21.6135 27.2672C23.3789 26.5253 24.8879 25.2683 25.9496 23.6552C27.0113 22.0421 27.578 20.1454 27.578 18.2052C27.5669 15.6097 26.5475 13.1235 24.7414 11.2871C22.9353 9.45064 20.4884 8.41229 17.9327 8.39771ZM17.9327 25.2052C16.5664 25.2125 15.2287 24.8077 14.0893 24.042C12.9498 23.2764 12.0599 22.1843 11.5323 20.9044C11.0047 19.6245 10.8633 18.2143 11.1258 16.8527C11.3884 15.491 12.0432 14.2392 13.0072 13.2559C13.9712 12.2726 15.201 11.6021 16.5406 11.3295C17.8803 11.0568 19.2695 11.1943 20.5322 11.7244C21.7948 12.2545 22.8741 13.1535 23.633 14.3072C24.392 15.461 24.7965 16.8176 24.7953 18.2052C24.7985 19.1227 24.6234 20.0319 24.28 20.8807C23.9367 21.7294 23.4318 22.501 22.7943 23.1513C22.1568 23.8015 21.3992 24.3177 20.565 24.6701C19.7307 25.0226 18.8362 25.2044 17.9327 25.2052Z" fill="#2E4042"/>
</svg>
