<svg width="38" height="37" viewBox="0 0 38 37" fill="none" xmlns="http://www.w3.org/2000/svg">
<path d="M4.06761 0.137501C3.29247 0.343727 2.73779 0.663738 2.13333 1.27531C1.51464 1.88689 1.20174 2.43446 0.995513 3.23804C0.853287 3.7785 0.853287 4.07718 0.853287 18.2003C0.853287 32.3234 0.853287 32.622 0.995513 33.1625C1.20174 33.9661 1.51464 34.5137 2.13333 35.1252C2.7449 35.7439 3.29247 36.0568 4.09605 36.263C4.63651 36.4053 4.93519 36.4053 19.0583 36.4053C33.1814 36.4053 33.4801 36.4053 34.0205 36.263C34.8241 36.0568 35.3717 35.7439 35.9832 35.1252C36.6019 34.5137 36.9148 33.9661 37.1211 33.1625C37.2633 32.622 37.2633 32.3234 37.2633 18.2003C37.2633 4.07718 37.2633 3.7785 37.1211 3.23804C36.9148 2.43446 36.6019 1.88689 35.9832 1.27531C35.3717 0.656628 34.8241 0.343727 34.0205 0.137501C33.4801 -0.00472641 33.1885 -0.00472641 19.0298 0.00238419C5.04186 0.00238419 4.57251 0.00949478 4.06761 0.137501ZM33.729 3.04603C33.8783 3.13848 34.0845 3.34471 34.1912 3.50116L34.3832 3.79272V18.1932V32.6007L34.2125 32.8709C34.1201 33.0203 33.9139 33.2265 33.7574 33.3332L33.4658 33.5252H19.0583H4.65074L4.35917 33.3332C4.20272 33.2265 3.99649 33.0203 3.90405 32.8709L3.73337 32.6007L3.71204 18.3496C3.70493 8.46486 3.71915 4.02029 3.76893 3.82117C3.86138 3.48693 4.3165 3.01048 4.63651 2.91803C4.78585 2.87536 10.2758 2.85403 19.165 2.86114L33.4587 2.87536L33.729 3.04603Z" fill="#2E4042"/>
<path d="M9.04554 6.07544C8.5193 6.22478 8.11395 6.47368 7.7015 6.91458C7.06148 7.59016 6.79836 8.45774 6.94769 9.34665C7.05436 9.95823 7.27482 10.4062 7.7015 10.8543C8.34151 11.5298 9.14509 11.8498 10.0269 11.7787C10.738 11.7218 11.25 11.4943 11.7621 11.0178C12.7434 10.0933 12.9994 8.73508 12.4021 7.5546C12.1319 7.02125 11.4349 6.38123 10.9016 6.18211C10.3682 5.983 9.55044 5.93322 9.04554 6.07544Z" fill="#2E4042"/>
<path d="M23.894 13.7983C22.5144 13.9975 21.1063 14.8153 20.445 15.8037L20.1961 16.1735V15.0855V14.0046H17.7782H15.3604V22.0404V30.0762H17.7711H20.189L20.2174 25.4325C20.2459 20.3905 20.2459 20.4048 20.6583 19.523C21.1704 18.442 22.173 17.9158 23.5455 18.0082C24.5127 18.0723 25.1598 18.4918 25.5296 19.3025C25.8994 20.099 25.9065 20.1772 25.9349 25.2902L25.9634 30.0762H28.4168H30.8702L30.8418 24.6147C30.8204 21.0661 30.7778 18.9967 30.728 18.698C30.1946 15.5833 28.8861 14.1895 26.1341 13.7912C25.558 13.713 24.4558 13.713 23.894 13.7983Z" fill="#2E4042"/>
<path d="M7.25348 22.0404V30.0762H9.74245H12.2314V22.0404V14.0046H9.74245H7.25348V22.0404Z" fill="#2E4042"/>
</svg>
